<mxfile host="app.diagrams.net" modified="2021-01-20T07:03:27.994Z" agent="5.0 (Windows NT 10.0; Win64; x64) AppleWebKit/537.36 (KHTML, like Gecko) Chrome/87.0.4280.141 Safari/537.36" etag="SJUDhxYlE4omYNo6uwI7" version="14.2.5" type="github">
  <diagram id="dsQcUP_wkPqDR7Pz393j" name="Page-1">
    <mxGraphModel dx="1738" dy="971" grid="1" gridSize="11" guides="1" tooltips="1" connect="1" arrows="1" fold="1" page="0" pageScale="1" pageWidth="850" pageHeight="1100" math="0" shadow="0">
      <root>
        <mxCell id="0" />
        <mxCell id="1" parent="0" />
        <mxCell id="aiuoiwqxx1_QvkTEQP0J-10" value="" style="rounded=0;whiteSpace=wrap;html=1;" vertex="1" parent="1">
          <mxGeometry width="850" height="1450" as="geometry" />
        </mxCell>
        <mxCell id="aiuoiwqxx1_QvkTEQP0J-3" value="&lt;h4&gt;&lt;b&gt;&amp;nbsp; &amp;nbsp; &amp;nbsp; &amp;nbsp; &amp;nbsp; &amp;nbsp; &amp;nbsp; &amp;nbsp; &amp;nbsp; &amp;nbsp; &amp;nbsp; &amp;nbsp; &amp;nbsp; &amp;nbsp; &amp;nbsp; &amp;nbsp; &amp;nbsp; &amp;nbsp; &amp;nbsp;Info&amp;nbsp; Menu&lt;/b&gt;&lt;/h4&gt;" style="rounded=0;whiteSpace=wrap;html=1;fontFamily=Verdana;align=left;" vertex="1" parent="1">
          <mxGeometry width="850" height="60" as="geometry" />
        </mxCell>
        <mxCell id="aiuoiwqxx1_QvkTEQP0J-4" value="" style="rounded=0;whiteSpace=wrap;html=1;fillColor=#e1d5e7;strokeColor=#9673a6;" vertex="1" parent="1">
          <mxGeometry y="60" width="850" height="490" as="geometry" />
        </mxCell>
        <mxCell id="aiuoiwqxx1_QvkTEQP0J-5" value="&lt;h2&gt;ACCEPTS CARDS&lt;/h2&gt;" style="rounded=1;whiteSpace=wrap;html=1;fillColor=#bac8d3;strokeColor=#23445d;fontStyle=1" vertex="1" parent="1">
          <mxGeometry x="300" y="30" width="250" height="60" as="geometry" />
        </mxCell>
        <mxCell id="aiuoiwqxx1_QvkTEQP0J-12" value="" style="shape=parallelogram;perimeter=parallelogramPerimeter;whiteSpace=wrap;html=1;fixedSize=1;fillColor=#ffe6cc;strokeColor=#d79b00;" vertex="1" parent="1">
          <mxGeometry x="245" y="530" width="360" height="60" as="geometry" />
        </mxCell>
        <mxCell id="aiuoiwqxx1_QvkTEQP0J-11" value="" style="ellipse;whiteSpace=wrap;html=1;aspect=fixed;" vertex="1" parent="1">
          <mxGeometry x="290" y="540" width="40" height="40" as="geometry" />
        </mxCell>
        <mxCell id="aiuoiwqxx1_QvkTEQP0J-13" value="" style="rounded=0;whiteSpace=wrap;html=1;fillColor=#f5f5f5;strokeColor=#666666;fontColor=#333333;labelPosition=center;verticalLabelPosition=middle;align=center;verticalAlign=middle;" vertex="1" parent="1">
          <mxGeometry y="627" width="850" height="242" as="geometry" />
        </mxCell>
        <mxCell id="aiuoiwqxx1_QvkTEQP0J-14" value="See full menu" style="rounded=1;whiteSpace=wrap;html=1;strokeColor=#6c8ebf;fontStyle=1;fillColor=#ACB7C7;" vertex="1" parent="1">
          <mxGeometry x="682" y="642" width="118" height="18" as="geometry" />
        </mxCell>
        <mxCell id="aiuoiwqxx1_QvkTEQP0J-15" value="&lt;h6&gt;&lt;u&gt;Terms of use&amp;nbsp; &amp;nbsp; &amp;nbsp; &amp;nbsp; Privacy policy&amp;nbsp; &amp;nbsp;Copyright 2021&amp;nbsp;&lt;/u&gt;&lt;/h6&gt;" style="rounded=0;whiteSpace=wrap;html=1;fillColor=#647687;strokeColor=#314354;fontColor=#ffffff;" vertex="1" parent="1">
          <mxGeometry y="1100" width="850" height="350" as="geometry" />
        </mxCell>
        <mxCell id="aiuoiwqxx1_QvkTEQP0J-16" value="&lt;font size=&quot;3&quot;&gt;Contact US&lt;br&gt;Tel: 954-681-8806&lt;br&gt;&lt;/font&gt;" style="rounded=0;whiteSpace=wrap;html=1;fillColor=#f5f5f5;strokeColor=#666666;gradientColor=#b3b3b3;" vertex="1" parent="1">
          <mxGeometry x="30" y="1140" width="230" height="270" as="geometry" />
        </mxCell>
        <mxCell id="aiuoiwqxx1_QvkTEQP0J-19" value="Follow us on&lt;br&gt;&lt;br&gt;Twitter&lt;br&gt;&lt;br&gt;Facebook&lt;br&gt;&lt;br&gt;Instagram" style="rounded=0;whiteSpace=wrap;html=1;gradientColor=#b3b3b3;fillColor=#f5f5f5;strokeColor=#666666;" vertex="1" parent="1">
          <mxGeometry x="310" y="1140" width="230" height="270" as="geometry" />
        </mxCell>
        <mxCell id="aiuoiwqxx1_QvkTEQP0J-20" value="" style="rounded=0;whiteSpace=wrap;html=1;gradientColor=#b3b3b3;fillColor=#f5f5f5;strokeColor=#666666;" vertex="1" parent="1">
          <mxGeometry x="584" y="1140" width="230" height="270" as="geometry" />
        </mxCell>
        <mxCell id="aiuoiwqxx1_QvkTEQP0J-23" value="&lt;font face=&quot;Times New Roman&quot; style=&quot;font-size: 11px&quot;&gt;&lt;span style=&quot;font-style: normal&quot;&gt;OPENS 7:00 AM Full Hours&lt;/span&gt;&lt;/font&gt;&lt;span style=&quot;font-style: normal&quot;&gt;&lt;br&gt;&lt;/span&gt;CUNNI&#39;S&lt;br&gt;Pizza &amp;amp; Grill&lt;br&gt;&lt;div style=&quot;text-align: left&quot;&gt;&lt;font style=&quot;font-size: 11px&quot; face=&quot;Tahoma&quot;&gt;4536 University Dr.&amp;nbsp; Coral Springs 33073&lt;/font&gt;&lt;/div&gt;" style="rounded=1;whiteSpace=wrap;html=1;fontFamily=Comic Sans MS;fontSize=26;fontStyle=3;verticalAlign=top;" vertex="1" parent="1">
          <mxGeometry x="80" y="178.5" width="250" height="253" as="geometry" />
        </mxCell>
        <mxCell id="aiuoiwqxx1_QvkTEQP0J-28" value="&lt;font size=&quot;1&quot;&gt;&lt;sup&gt;Order ahead&lt;/sup&gt;&lt;/font&gt;" style="rounded=1;whiteSpace=wrap;html=1;fontFamily=Georgia;fontSize=17;fillColor=#e51400;strokeColor=#B20000;fontColor=#ffffff;fontStyle=1" vertex="1" parent="1">
          <mxGeometry x="131" y="380" width="143" height="22" as="geometry" />
        </mxCell>
        <mxCell id="aiuoiwqxx1_QvkTEQP0J-30" value="&lt;font style=&quot;font-size: 14px&quot; color=&quot;#00cc00&quot;&gt;SAVE 5% - order online!&lt;/font&gt;" style="rounded=1;whiteSpace=wrap;html=1;fontFamily=Georgia;fontSize=17;" vertex="1" parent="1">
          <mxGeometry x="110" y="330" width="187" height="22" as="geometry" />
        </mxCell>
        <mxCell id="aiuoiwqxx1_QvkTEQP0J-35" value="" style="shape=ext;double=1;rounded=1;whiteSpace=wrap;html=1;fillColor=#ACB7C7;gradientColor=none;fontFamily=Georgia;fontSize=17;" vertex="1" parent="1">
          <mxGeometry x="173.5" y="724" width="91" height="48" as="geometry" />
        </mxCell>
        <mxCell id="aiuoiwqxx1_QvkTEQP0J-36" value="" style="shape=ext;double=1;rounded=1;whiteSpace=wrap;html=1;fillColor=#ACB7C7;gradientColor=none;fontFamily=Georgia;fontSize=17;" vertex="1" parent="1">
          <mxGeometry x="290" y="724" width="91" height="48" as="geometry" />
        </mxCell>
        <mxCell id="aiuoiwqxx1_QvkTEQP0J-37" value="" style="shape=ext;double=1;rounded=1;whiteSpace=wrap;html=1;fillColor=#ACB7C7;gradientColor=none;fontFamily=Georgia;fontSize=17;" vertex="1" parent="1">
          <mxGeometry x="407" y="724" width="91" height="48" as="geometry" />
        </mxCell>
        <mxCell id="aiuoiwqxx1_QvkTEQP0J-38" value="" style="shape=ext;double=1;rounded=1;whiteSpace=wrap;html=1;fillColor=#ACB7C7;gradientColor=none;fontFamily=Georgia;fontSize=17;" vertex="1" parent="1">
          <mxGeometry x="528" y="724" width="91" height="48" as="geometry" />
        </mxCell>
        <mxCell id="aiuoiwqxx1_QvkTEQP0J-39" value="" style="shape=ext;double=1;rounded=1;whiteSpace=wrap;html=1;fillColor=#ACB7C7;gradientColor=none;fontFamily=Georgia;fontSize=17;" vertex="1" parent="1">
          <mxGeometry x="30" y="792" width="91" height="48" as="geometry" />
        </mxCell>
        <mxCell id="aiuoiwqxx1_QvkTEQP0J-40" value="" style="shape=ext;double=1;rounded=1;whiteSpace=wrap;html=1;fillColor=#ACB7C7;gradientColor=none;fontFamily=Georgia;fontSize=17;" vertex="1" parent="1">
          <mxGeometry x="143" y="792" width="91" height="48" as="geometry" />
        </mxCell>
        <mxCell id="aiuoiwqxx1_QvkTEQP0J-41" value="" style="shape=ext;double=1;rounded=1;whiteSpace=wrap;html=1;fillColor=#ACB7C7;gradientColor=none;fontFamily=Georgia;fontSize=17;" vertex="1" parent="1">
          <mxGeometry x="264.5" y="792" width="153.5" height="48" as="geometry" />
        </mxCell>
        <mxCell id="aiuoiwqxx1_QvkTEQP0J-42" value="" style="shape=ext;double=1;rounded=1;whiteSpace=wrap;html=1;fillColor=#ACB7C7;gradientColor=none;fontFamily=Georgia;fontSize=17;" vertex="1" parent="1">
          <mxGeometry x="451.5" y="792" width="153.5" height="48" as="geometry" />
        </mxCell>
        <mxCell id="aiuoiwqxx1_QvkTEQP0J-43" value="" style="shape=ext;double=1;rounded=1;whiteSpace=wrap;html=1;fillColor=#ACB7C7;gradientColor=none;fontFamily=Georgia;fontSize=17;" vertex="1" parent="1">
          <mxGeometry x="646.5" y="792" width="153.5" height="48" as="geometry" />
        </mxCell>
      </root>
    </mxGraphModel>
  </diagram>
</mxfile>
